<svg width="16" height="16" viewBox="0 0 16 16" fill="none" xmlns="http://www.w3.org/2000/svg">
<path d="M6.81746 11.5448L12.42 5.94227L11.5418 5.06415L6.81746 9.78852L4.44246 7.41352L3.56433 8.29165L6.81746 11.5448ZM8.00162 15.9166C6.90662 15.9166 5.87739 15.7089 4.91391 15.2933C3.95044 14.8778 3.11239 14.3138 2.39975 13.6014C1.68711 12.8891 1.12287 12.0514 0.707038 11.0883C0.291343 10.1253 0.0834961 9.0963 0.0834961 8.00144C0.0834961 6.90644 0.291274 5.8772 0.706829 4.91373C1.12239 3.95026 1.68634 3.1122 2.3987 2.39956C3.11107 1.68692 3.94877 1.12269 4.91183 0.706855C5.87489 0.29116 6.90384 0.083313 7.99871 0.083313C9.09371 0.083313 10.1229 0.29109 11.0864 0.706646C12.0499 1.1222 12.8879 1.68616 13.6006 2.39852C14.3132 3.11088 14.8775 3.94859 15.2933 4.91165C15.709 5.8747 15.9168 6.90366 15.9168 7.99852C15.9168 9.09352 15.7091 10.1228 15.2935 11.0862C14.8779 12.0497 14.314 12.8878 13.6016 13.6004C12.8893 14.313 12.0516 14.8773 11.0885 15.2931C10.1254 15.7088 9.09648 15.9166 8.00162 15.9166Z" fill="#1E2A54" style="fill:#1E2A54;fill:color(display-p3 0.1160 0.1656 0.3294);fill-opacity:1;"/>
</svg>
