<svg width="29" height="31" viewBox="0 0 29 31" fill="none" xmlns="http://www.w3.org/2000/svg">
<mask id="mask0_1190_3118" style="mask-type:alpha" maskUnits="userSpaceOnUse" x="0" y="0" width="29" height="31">
<rect y="0.5" width="29" height="30" fill="#D9D9D9" style="fill:#D9D9D9;fill:color(display-p3 0.8510 0.8510 0.8510);fill-opacity:1;"/>
</mask>
<g mask="url(#mask0_1190_3118)">
<path d="M23.6833 26.75L16.0708 18.875C15.4667 19.375 14.7719 19.7708 13.9865 20.0625C13.201 20.3542 12.3653 20.5 11.4792 20.5C9.28403 20.5 7.42622 19.7135 5.90573 18.1406C4.38524 16.5677 3.625 14.6458 3.625 12.375C3.625 10.1042 4.38524 8.18229 5.90573 6.60938C7.42622 5.03646 9.28403 4.25 11.4792 4.25C13.6743 4.25 15.5321 5.03646 17.0526 6.60938C18.5731 8.18229 19.3333 10.1042 19.3333 12.375C19.3333 13.2917 19.1924 14.1562 18.9104 14.9688C18.6285 15.7812 18.2458 16.5 17.7625 17.125L25.375 25L23.6833 26.75ZM11.4792 18C12.9896 18 14.2734 17.4531 15.3307 16.3594C16.388 15.2656 16.9167 13.9375 16.9167 12.375C16.9167 10.8125 16.388 9.48438 15.3307 8.39062C14.2734 7.29688 12.9896 6.75 11.4792 6.75C9.96875 6.75 8.6849 7.29688 7.6276 8.39062C6.57031 9.48438 6.04167 10.8125 6.04167 12.375C6.04167 13.9375 6.57031 15.2656 7.6276 16.3594C8.6849 17.4531 9.96875 18 11.4792 18Z" fill="#254FDB" style="fill:#254FDB;fill:color(display-p3 0.1435 0.3094 0.8590);fill-opacity:1;"/>
</g>
</svg>
